<?xml version="1.0" standalone="no"?><!DOCTYPE svg PUBLIC "-//W3C//DTD SVG 1.1//EN" "http://www.w3.org/Graphics/SVG/1.1/DTD/svg11.dtd"><svg t="1695220444693" class="icon" viewBox="0 0 1024 1024" version="1.1" xmlns="http://www.w3.org/2000/svg" p-id="45953" xmlns:xlink="http://www.w3.org/1999/xlink" width="200" height="200"><path d="M421.33980309 702.64180723s33.32681424 5.19384694 46.8779119 32.12720891c0 0 6.08688647-60.7533473-74.85981782-81.01779205 0 0-63.04592642-15.41270747-90.04593315 48.5973463 0 0-24.83183106 83.82131419 65.84944861 115.08214142 0 0 44.03440291 21.16192724 98.22990755 2.24370629 0 0 85.17198097-27.10219526 177.88370382 28.64835338 0 0-41.39971406-63.48133877-151.31466648-65.24520299 0 0-121.83103234 15.60375573-116.61497049-50.97434208 0.00888596 0.00444299 9.04147009-36.65905138 43.99441606-29.46141918z m-43.63453445 174.1649272s-130.96580506-56.50141271-128.03787938-164.4303518c0 0 3.52772837-119.09415492 123.36830444-105.70744763 0 0 87.02026183 4.46964071 123.37719037 96.31053893 0 0 43.38572742-209.77099163-148.95544258-234.89605956 0 0-171.19701465-15.04838288-209.5177416 162.08889981 0 0-43.32352561 152.40319727 155.9664695 277.16659827 0 0 315.78056209 175.59112467 514.39078082-143.29063945-0.00888596 0-156.39299583 209.2867065-430.59168157 112.75846143z m307.04565784-365.87075064s18.30953227 62.80600537 86.72258199 54.37322396c0 0 84.40334493-20.19335698 65.84944861-115.07769842 0 0-3.86539505-49.03720156-47.14893383-86.9491741 0 0-65.84944862-60.88219381-64.40103623-169.84190492 0 0-33.79332747 67.93765056 19.68685694 164.91019397 0 0 74.30888794 98.66976281 14.54188281 127.38920388 0 0-35.97038905 10.41435177-47.25112243-23.69442748 0 0-12.20043087-31.71845447 4.13197401-57.06122857 0 0-55.19961875 25.07619514-32.13165187 105.95181168z m-112.80733422-417.80477693s257.82185097 32.06945012 312.07511443 319.95252299c0 0 17.02995319 142.71305168-77.08575222 194.11392008 0 0-103.96579837 56.47919779-152.37653935-54.9774696 0 0-39.71138059-78.28980057 20.9175632-155.95314053 0 0-201.70253482 66.95575132-127.06042313 247.62076241 0 0 72.66054131 157.13497398 243.83089805 102.06420169 0 0 152.47428498-38.33849889 159.86296544-274.90067699 0.00444299 0.00444299-7.16653132-363.75144777-380.16382642-377.92012005zM255.95420997 351.25518068s47.53991634-114.28684751 102.07308771-76.40597582c0 0 26.924476 26.23137068 3.27447835 53.15584664 0 0-21.09083953 26.53793649-51.005443 24.91624775 0 0 49.1127323 35.69048112 106.9648118-24.91624775 0 0 44.77193806-47.37996898 3.30557925-102.99278512 0 0-59.49598317-63.61018526-131.69001129 0 0 0-40.15567888 27.91526116-51.00099996 84.71435375 0 0-19.34919026 87.99327507-113.57152726 141.18022259 0 0 75.19748452-4.44298286 131.6500244-99.65166204zM233.65932211 202.78846621s113.96695273-86.21163893 205.13696056-29.67468235c0 0 100.43806999 62.6149571 29.03489281 160.6715883 0 0-47.35775406 73.81127386-144.34362637 59.65593055 0 0 158.35679425 142.8152403 276.0425236-12.72914584 0 0 98.50981547-142.08214813-34.32648541-264.1353296 0 0-109.11521547-114.07802731-315.86497876-2.28369316 0 0-308.53850005 188.16920908-134.22695446 521.21964546 0-0.00444299-101.37109639-241.34727065 118.54766803-432.72431336z" p-id="45954" fill="#2c2c2c"></path></svg>