<?xml version="1.0" standalone="no"?><!DOCTYPE svg PUBLIC "-//W3C//DTD SVG 1.1//EN" "http://www.w3.org/Graphics/SVG/1.1/DTD/svg11.dtd"><svg t="1695128933313" class="icon" viewBox="0 0 1024 1024" version="1.1" xmlns="http://www.w3.org/2000/svg" p-id="20249" xmlns:xlink="http://www.w3.org/1999/xlink" width="200" height="200"><path d="M863.94846 384.0028c17.679923 0 31.99986-14.319937 31.99986-31.99986v-68.219702L1004.007847 164.003762c27.619879-30.439867 26.439884-77.059663-2.619988-106.179535l-35.319846-35.259846c-28.999873-29.039873-75.679669-30.159868-105.999536-2.719988L314.530864 512.00224h-90.559604c-17.679923 0-31.99986 14.319937-31.99986 31.99986v78.559656l-157.059313 141.67938-0.119999 0.1C13.412181 783.721051 0.732237 811.38093 0.05224 840.240804c-0.739997 28.879874 10.559954 57.15975 30.999864 77.61966l75.059672 75.039672c19.739914 19.839913 46.999794 31.099864 74.999672 31.099864 44.339806 0 71.139689-26.739883 78.559656-34.939847L805.528716 384.0028h58.419744zM188.411416 924.720434c-1.639993 1.819992-8.459963 6.479972-14.439937 0.339999l-75.059672-75.039672c-5.939974-6.019974-1.459994-12.879944 0.319999-14.539936L910.948255 103.224028l9.819957 9.759958L188.411416 924.720434z" p-id="20250" fill="#ffffff"></path></svg>