<?xml version="1.0" standalone="no"?><!DOCTYPE svg PUBLIC "-//W3C//DTD SVG 1.1//EN" "http://www.w3.org/Graphics/SVG/1.1/DTD/svg11.dtd"><svg t="1695128808422" class="icon" viewBox="0 0 1024 1024" version="1.1" xmlns="http://www.w3.org/2000/svg" p-id="12739" xmlns:xlink="http://www.w3.org/1999/xlink" width="200" height="200"><path d="M893.663 152.932L532.925 25.822a63.377 63.377 0 0 0-41.806 0l-360.782 127.11a61.507 61.507 0 0 0-41.294 57.923v388.652C89.043 856.11 512 1001.74 512 1001.74s422.957-145.63 422.957-402.21V210.745c0-26.001-16.474-49.13-41.294-57.834z m-95.789 190.019L548.641 524.154 523.576 767.8c-2.137 21.014-21.015 21.014-23.152 0L475.36 524.154l-249.1-181.203c-14.246-12.689 5.165-31.098 24.042-22.75L492.722 447.31a41.36 41.36 0 0 0 38.534 0L773.832 320.2c18.744-8.347 38.267 10.062 24.042 22.751z" p-id="12740" fill="#ffffff"></path></svg>