<?xml version="1.0" standalone="no"?><!DOCTYPE svg PUBLIC "-//W3C//DTD SVG 1.1//EN" "http://www.w3.org/Graphics/SVG/1.1/DTD/svg11.dtd"><svg t="1695129021858" class="icon" viewBox="0 0 1024 1024" version="1.1" xmlns="http://www.w3.org/2000/svg" p-id="26086" xmlns:xlink="http://www.w3.org/1999/xlink" width="200" height="200"><path d="M511.65 175.812c8.588 1.304 17.203 2.443 25.758 3.937 58.021 10.132 108.087 34.64 144.71 82.156 25.303 32.829 36.123 70.124 30.967 111.631-0.203 1.622-0.292 3.262-0.409 4.896-0.041 0.596-0.008 1.199-0.008 2.243 50.86 14.318 86.739 45.53 104.025 95.912 12.922 37.66 10.314 75.16-7.473 110.822-37.275 74.73-119.208 93.506-173.595 74.076 73.584-0.526 122.113-54.219 130.514-109.745 10.27-67.864-31.39-116.939-65.898-133.39-11.548 23.185-27.141 43.317-46.92 59.595 4.408-12.893 9.934-25.643 13.12-38.954 16.243-67.857-11.87-137.754-71.148-178.223-29.22-19.949-61.547-31-96.903-32.688-58.221-2.777-107.924 16.445-148.69 58.297-1.962 2.016-3.688 4.26-6.28 7.278 4.352 1.093 7.782 1.981 11.226 2.816 72.688 17.658 130.383 56.518 169.566 120.957 23.181 38.122 33.89 79.815 29.936 124.314-4.717 53.091-24.218 99.634-66.867 133.856-45.169 36.244-109.973 40.548-157.592 11.38-43.394-26.58-59.316-80.41-36.5-123.87 17.082-32.546 52.05-45.47 85.174-40.785-4.325 1.09-7.277 1.728-10.166 2.583-24.852 7.355-41.523 28.482-42.294 53.532-0.838 27.231 14.467 50.22 39.67 59.585 32.55 12.094 72.636 0.82 97.444-27.228 18.553-20.976 27.71-45.977 28.837-73.356 2.672-64.931-20.604-118.511-73.645-157.378-27.745-20.33-59.652-30.503-93.967-31.51-67.419-1.972-119.454 27.56-158.76 80.729-23.799 32.192-36.597 68.883-37.645 109.023-2.603 99.674 41.74 173.184 126.985 222.536 47.505 27.506 99.54 38.933 154.285 36.48 52.397-2.347 100.701-17.99 144.233-47.634 1.348-0.92 2.73-1.787 4.11-2.661 0.112-0.071 0.328 0.026 1.611 1.418-19.793 15.892-39.585 31.785-60.232 48.36 8.183 2.087 16.266 4.463 24.486 6.189 37.517 7.89 74.988 9.088 112.242-1.616 17.243-4.956 33.163-12.67 47.76-23.16 28.284-20.328 57.438-39.136 90.047-52.036 28.906-11.43 58.732-14.91 89.628-12.479 25.271 1.985 50.64 3.832 75.958 3.762 19.472-0.049 38.935-3.173 56.208-4.732-4.262 3.955-21.688 11.821-36.037 15.716-21.94 5.955-44.485 7.088-66.914 7.05-61.567-0.102-115.389 20.026-162.184 59.605-42.15 35.649-91.39 53.966-145.713 59.999-7.839 0.871-15.683 1.694-23.524 2.542h-13.513c-1.495-0.414-2.976-1.146-4.484-1.194-36.497-1.232-71-10.11-103.666-26.457-2.476-1.237-6.36-1.224-9.04-0.262-47.082 16.882-95.461 22.383-144.862 15.03-70.869-10.55-130.942-42.432-179.486-95.15-39.498-42.896-64.234-93.252-73.138-151.103-1.326-8.615-2.51-17.256-3.762-25.883v-36.856c0.462-1.71 1.078-3.394 1.36-5.132 2.65-16.313 4.009-32.948 8.052-48.905 28.582-112.749 127.015-190.29 243.82-192.606 3.512-0.07 5.417-1.187 7.234-4.222 5.036-8.408 9.902-17.044 15.973-24.687 36.709-46.221 85.984-70.4 143.093-80.453 8.767-1.542 17.612-2.644 26.421-3.95h36.861z m456.84 534.272c-24.445 2.113-47.093-3.25-67.382-17.155-11.635-7.978-22.829-16.597-34.315-24.797-22.5-16.06-47.415-24.44-75.256-23.35-1.792 0.071-3.587 0.012-5.738 0.012 7.365-8.75 14.116-17.35 21.607-25.245 1.796-1.892 6.06-1.988 9.188-1.986 24.57 0.015 45.507 9 62.489 26.661 11.051 11.493 21.477 23.594 32.292 35.318 15.46 16.76 33.649 28.468 57.116 30.542z" p-id="26087" fill="#ffffff"></path></svg>